<svg width="32" height="32" viewBox="0 0 32 32" fill="none" xmlns="http://www.w3.org/2000/svg">
<path d="M19.117 7.21501C20.468 7.4786 21.7096 8.13935 22.683 9.1127C23.6563 10.086 24.3171 11.3277 24.5807 12.6787M19.117 1.68213C21.9239 1.99396 24.5414 3.25094 26.5396 5.2467C28.5379 7.24245 29.7982 9.85835 30.1136 12.6649M28.4987 28.9722C28.3443 29.3251 28.118 29.642 27.8341 29.9024C27.5503 30.1628 27.2151 30.3611 26.8502 30.4845C26.4853 30.6079 26.0986 30.6538 25.7149 30.6191C21.4585 30.1566 17.37 28.7021 13.7777 26.3726C10.4356 24.2489 7.60212 21.4154 5.47842 18.0733C3.14074 14.4647 1.68596 10.3563 1.23193 6.08077C1.19736 5.69826 1.24282 5.31275 1.36541 4.94878C1.488 4.5848 1.68503 4.25034 1.94396 3.96669C2.2029 3.68303 2.51806 3.4564 2.86937 3.30122C3.22069 3.14604 3.60047 3.06571 3.98454 3.06535H7.29044H7.31095C8.27075 3.06531 9.18746 3.06528 9.96525 3.73418C10.4742 4.17191 10.8067 4.77978 10.9006 5.44449C11.0758 6.77247 11.4006 8.07638 11.8689 9.33134C12.055 9.82642 12.0953 10.3645 11.985 10.8818C11.8746 11.399 11.6183 11.8738 11.2464 12.2499L9.48975 14.0066C11.4588 17.4696 14.3261 20.3368 17.7891 22.3059L19.5458 20.5492C19.9218 20.1774 20.3967 19.9211 20.9139 19.8107C21.4312 19.7004 21.9693 19.7407 22.4644 19.9268C23.1291 20.1748 23.8075 20.3826 24.496 20.5492C25.1074 20.6972 25.7266 20.8127 26.3512 20.8951C27.0231 20.9898 27.6368 21.3283 28.0754 21.846C28.7055 22.5896 28.7381 24.2788 28.7304 25.8885C28.7244 27.1128 28.7964 28.2912 28.4987 28.9722Z" stroke="white" stroke-width="2.07483" stroke-linecap="round" stroke-linejoin="round"/>
</svg>
