<svg width="145" height="24" viewBox="0 0 145 24" fill="none" xmlns="http://www.w3.org/2000/svg">
<path d="M1.43442 11.4342C1.12198 11.7467 1.12198 12.2533 1.43442 12.5657L6.52597 17.6573C6.83841 17.9697 7.345 17.9697 7.65744 17.6573C7.96988 17.3448 7.96988 16.8382 7.65744 16.5258L3.13162 12L7.65744 7.47414C7.96988 7.1617 7.96988 6.65513 7.65744 6.34269C7.345 6.03025 6.83841 6.03025 6.52597 6.34269L1.43442 11.4342ZM355.333 11.1999L350.426 11.1999L350.426 12.8001L355.333 12.8001L355.333 11.1999ZM340.611 11.1999L330.796 11.1999L330.796 12.8001L340.611 12.8001L340.611 11.1999ZM320.982 11.1999L311.167 11.1999L311.167 12.8001L320.982 12.8001L320.982 11.1999ZM301.352 11.1999L291.537 11.1999L291.537 12.8001L301.352 12.8001L301.352 11.1999ZM281.722 11.1999L271.908 11.1999L271.908 12.8001L281.722 12.8001L281.722 11.1999ZM262.093 11.1999L252.278 11.1999L252.278 12.8001L262.093 12.8001L262.093 11.1999ZM242.463 11.1999L232.648 11.1999L232.648 12.8L242.463 12.8001L242.463 11.1999ZM222.833 11.1999L213.019 11.1999L213.019 12.8L222.833 12.8L222.833 11.1999ZM203.204 11.1999L193.389 11.1999L193.389 12.8L203.204 12.8L203.204 11.1999ZM183.574 11.1999L173.759 11.1999L173.759 12.8L183.574 12.8L183.574 11.1999ZM163.945 11.1999L154.13 11.1999L154.13 12.8L163.945 12.8L163.945 11.1999ZM144.315 11.1999L134.5 11.1999L134.5 12.8L144.315 12.8L144.315 11.1999ZM124.685 11.1999L114.87 11.1999L114.87 12.8L124.685 12.8L124.685 11.1999ZM105.056 11.1999L95.2408 11.1999L95.2408 12.8L105.056 12.8L105.056 11.1999ZM85.426 11.1999L75.6112 11.1999L75.6112 12.8L85.426 12.8L85.426 11.1999ZM65.7964 11.1999L55.9815 11.1999L55.9815 12.8L65.7964 12.8L65.7964 11.1999ZM46.1667 11.1999L36.3519 11.1999L36.3519 12.8L46.1667 12.8L46.1667 11.1999ZM26.5371 11.1999L16.7223 11.1999L16.7223 12.8L26.5371 12.8L26.5371 11.1999ZM6.90744 11.1999L2.00015 11.1999L2.00015 12.8L6.90744 12.8L6.90744 11.1999ZM0.868683 10.8685C0.243805 11.4934 0.243805 12.5065 0.868683 13.1314L11.0518 23.3145C11.6767 23.9394 12.6898 23.9394 13.3147 23.3145C13.9396 22.6896 13.9396 21.6765 13.3147 21.0516L4.26306 12L13.3147 2.94832C13.9396 2.32343 13.9396 1.31029 13.3147 0.685407C12.6898 0.0605217 11.6767 0.0605216 11.0518 0.685407L0.868683 10.8685ZM355.333 10.3999L350.426 10.3999L350.426 13.6001L355.333 13.6001L355.333 10.3999ZM340.611 10.3999L330.796 10.3999L330.796 13.6001L340.611 13.6001L340.611 10.3999ZM320.982 10.3999L311.167 10.3999L311.167 13.6001L320.982 13.6001L320.982 10.3999ZM301.352 10.3999L291.537 10.3999L291.537 13.6001L301.352 13.6001L301.352 10.3999ZM281.722 10.3999L271.908 10.3999L271.908 13.6001L281.722 13.6001L281.722 10.3999ZM262.093 10.3999L252.278 10.3999L252.278 13.6001L262.093 13.6001L262.093 10.3999ZM242.463 10.3999L232.648 10.3999L232.648 13.6001L242.463 13.6001L242.463 10.3999ZM222.833 10.3999L213.019 10.3999L213.019 13.6001L222.833 13.6001L222.833 10.3999ZM203.204 10.3999L193.389 10.3999L193.389 13.6001L203.204 13.6001L203.204 10.3999ZM183.574 10.3999L173.759 10.3999L173.759 13.6001L183.574 13.6001L183.574 10.3999ZM163.945 10.3999L154.13 10.3999L154.13 13.6001L163.945 13.6001L163.945 10.3999ZM144.315 10.3999L134.5 10.3999L134.5 13.6001L144.315 13.6001L144.315 10.3999ZM124.685 10.3999L114.87 10.3999L114.87 13.6001L124.685 13.6001L124.685 10.3999ZM105.056 10.3999L95.2408 10.3999L95.2408 13.6001L105.056 13.6001L105.056 10.3999ZM85.426 10.3999L75.6112 10.3999L75.6112 13.6001L85.426 13.6001L85.426 10.3999ZM65.7964 10.3999L55.9815 10.3999L55.9815 13.6001L65.7964 13.6001L65.7964 10.3999ZM46.1667 10.3999L36.3519 10.3999L36.3519 13.6001L46.1667 13.6001L46.1667 10.3999ZM26.5371 10.3999L16.7223 10.3998L16.7223 13.6001L26.5371 13.6001L26.5371 10.3999ZM6.90744 10.3998L2.00015 10.3998L2.00015 13.6001L6.90744 13.6001L6.90744 10.3998Z" fill="#D4C42E"/>
</svg>
