<svg width="390" height="161" viewBox="0 0 390 161" fill="none" xmlns="http://www.w3.org/2000/svg">
<path d="M192.667 95.9061L194.369 96.956L192.667 95.9061ZM389.333 15.2395L371.904 0.0886021L367.498 22.7584L389.333 15.2395ZM-62.2673 160.265C-59.2896 158.389 -56.3597 156.595 -53.4763 154.881L-55.5211 151.443C-58.4345 153.175 -61.3935 154.987 -64.3992 156.881L-62.2673 160.265ZM-35.855 145.06C-29.5602 141.797 -23.5079 138.931 -17.6838 136.425L-19.2649 132.75C-25.1817 135.296 -31.3207 138.204 -37.696 141.509L-35.855 145.06ZM1.24495 129.239C8.04217 127.018 14.4947 125.312 20.6324 124.044L19.8228 120.127C13.5329 121.426 6.93588 123.171 0.00249863 125.437L1.24495 129.239ZM40.4771 121.291C47.6012 120.804 54.2575 120.908 60.5126 121.433L60.8471 117.447C54.398 116.906 47.5387 116.799 40.2046 117.3L40.4771 121.291ZM80.2753 124.578C87.1973 126.181 93.6052 128.158 99.6517 130.171L100.915 126.376C94.8129 124.344 88.2725 122.324 81.1777 120.681L80.2753 124.578ZM118.987 136.635C126.022 138.775 132.782 140.32 139.489 140.386L139.528 136.386C133.386 136.326 127.052 134.907 120.151 132.808L118.987 136.635ZM159.932 135.148C165.227 132.197 170.569 127.873 176.109 121.854L173.166 119.145C167.843 124.928 162.827 128.956 157.985 131.654L159.932 135.148ZM188.756 105.637C190.593 102.936 192.463 100.046 194.369 96.956L190.964 94.8562C189.087 97.9005 187.25 100.74 185.449 103.387L188.756 105.637ZM194.369 96.956C196.371 93.7102 198.432 90.5822 200.546 87.5682L197.271 85.271C195.111 88.3499 193.007 91.5437 190.964 94.8562L194.369 96.956ZM214.532 70.0515C219.704 64.3577 225.092 59.1897 230.641 54.5057L228.061 51.4489C222.378 56.2456 216.863 61.5361 211.571 67.3621L214.532 70.0515ZM248.673 41.2533C255.117 37.152 261.691 33.5869 268.32 30.5027L266.633 26.876C259.852 30.031 253.124 33.6795 246.525 37.8787L248.673 41.2533ZM289.193 22.3479C296.496 20.0029 303.772 18.1663 310.924 16.7654L310.155 12.84C302.859 14.2693 295.431 16.144 287.97 18.5394L289.193 22.3479ZM333.163 13.6897C341.002 13.0445 348.53 12.8795 355.596 13.0807L355.71 9.08231C348.502 8.87703 340.826 9.04549 332.835 9.70315L333.163 13.6897Z" fill="#364ABB"/>
</svg>
