<svg width="529" height="597" viewBox="0 0 529 597" fill="none" xmlns="http://www.w3.org/2000/svg">
<path fill-rule="evenodd" clip-rule="evenodd" d="M27.1454 170.954C43.4408 128.428 92.5916 110.737 129.299 83.7907C170.323 53.6759 204.949 3.12299 255.817 3.08992C306.684 3.05685 338.148 58.4418 382.332 83.6262C426.823 108.985 492.47 106.996 517 151.961C541.616 197.082 507.044 251.678 501.925 302.843C497.363 348.436 506.373 395.113 488.452 437.29C469.383 482.166 437.999 521.525 397.482 548.641C355.578 576.685 306.029 593.283 255.628 593.106C205.319 592.929 157.836 573.065 114.429 547.647C71.2037 522.334 19.864 495.289 6.23939 447.067C-7.51999 398.368 41.4828 353.463 45.3044 302.99C48.7172 257.916 10.9692 213.169 27.1454 170.954Z" stroke="#3B57A8" stroke-width="6.12714" stroke-linecap="round" stroke-linejoin="round" stroke-dasharray="28.18 28.18"/>
</svg>
