<svg width="167" height="155" viewBox="0 0 167 155" fill="none" xmlns="http://www.w3.org/2000/svg">
<path d="M187.688 61.8755L185.985 60.8265L187.688 61.8755ZM3.54117e-07 138.949L17.4262 154.104L21.8373 131.435L3.54117e-07 138.949ZM421.175 6.26405C420.223 6.82503 419.907 8.05115 420.468 9.00265C421.029 9.95418 422.255 10.2708 423.206 9.70981L421.175 6.26405ZM403.293 20.5617C404.282 20.0689 404.684 18.8681 404.191 17.8795C403.698 16.891 402.497 16.4891 401.509 16.9818L403.293 20.5617ZM380.906 26.1539C379.877 26.5547 379.367 27.714 379.768 28.7433C380.169 29.7726 381.328 30.2821 382.358 29.8813L380.906 26.1539ZM360.605 36.9678C361.674 36.6907 362.316 35.5993 362.039 34.5301C361.762 33.4608 360.671 32.8186 359.602 33.0957L360.605 36.9678ZM337.66 37.1232C336.561 37.238 335.764 38.2216 335.878 39.3202C335.993 40.4188 336.977 41.2163 338.075 41.1016L337.66 37.1232ZM315.13 41.5104C316.231 41.5887 317.188 40.7589 317.266 39.6571C317.345 38.5553 316.515 37.5987 315.413 37.5205L315.13 41.5104ZM293.407 34.0234C292.334 33.7626 291.252 34.4213 290.992 35.4947C290.731 36.568 291.39 37.6496 292.463 37.9103L293.407 34.0234ZM270.59 31.2782C271.634 31.6365 272.772 31.0798 273.13 30.035C273.488 28.9901 272.932 27.8527 271.887 27.4944L270.59 31.2782ZM250.045 20.7395C248.967 20.5 247.899 21.18 247.659 22.2583C247.42 23.3366 248.1 24.4049 249.178 24.6444L250.045 20.7395ZM227.837 24.7769C228.893 24.4522 229.485 23.333 229.161 22.2773C228.836 21.2215 227.717 20.629 226.661 20.9538L227.837 24.7769ZM206.948 33.3993C206.154 34.1674 206.133 35.4336 206.901 36.2273C207.67 37.0211 208.936 37.0419 209.729 36.2738L206.948 33.3993ZM195.526 53.5031C196.155 52.5949 195.928 51.349 195.02 50.7204C194.111 50.0918 192.865 50.3185 192.237 51.2268L195.526 53.5031ZM180.096 69.787C179.463 70.6916 179.682 71.9387 180.587 72.5726C181.491 73.2064 182.738 72.9869 183.372 72.0822L180.096 69.787ZM169.725 89.1956C170.468 88.3774 170.406 87.1126 169.588 86.3705C168.77 85.6284 167.505 85.69 166.763 86.5082L169.725 89.1956ZM151.404 101.351C150.56 102.064 150.454 103.325 151.167 104.169C151.88 105.013 153.142 105.118 153.986 104.405L151.404 101.351ZM136.36 117.379C137.291 116.785 137.565 115.549 136.972 114.618C136.378 113.686 135.142 113.412 134.21 114.006L136.36 117.379ZM115.471 124.275C114.47 124.742 114.037 125.931 114.503 126.933C114.97 127.934 116.16 128.367 117.161 127.901L115.471 124.275ZM96.7857 135.874C97.8372 135.536 98.4155 134.409 98.0773 133.358C97.7391 132.306 96.6125 131.728 95.561 132.066L96.7857 135.874ZM74.83 137.4C73.746 137.613 73.0398 138.664 73.2525 139.748C73.4651 140.832 74.5163 141.538 75.6002 141.326L74.83 137.4ZM53.9401 144.327C55.041 144.236 55.8598 143.27 55.769 142.169C55.6782 141.068 54.7122 140.249 53.6114 140.34L53.9401 144.327ZM32.2074 140.923C31.1033 140.892 30.1827 141.761 30.1513 142.865C30.1199 143.97 30.9894 144.89 32.0936 144.922L32.2074 140.923ZM10.2844 142.987C11.376 143.155 12.3976 142.407 12.5661 141.315C12.7347 140.223 11.9864 139.202 10.8947 139.033L10.2844 142.987ZM430.933 0.30835C427.619 2.39851 424.367 4.38225 421.175 6.26405L423.206 9.70981C426.434 7.80711 429.72 5.80254 433.067 3.69171L430.933 0.30835ZM401.509 16.9818C394.309 20.5707 387.45 23.6061 380.906 26.1539L382.358 29.8813C389.021 27.2867 395.992 24.2014 403.293 20.5617L401.509 16.9818ZM359.602 33.0957C351.801 35.1173 344.506 36.4081 337.66 37.1232L338.075 41.1016C345.126 40.3651 352.617 39.0379 360.605 36.9678L359.602 33.0957ZM315.413 37.5205C307.464 36.9557 300.178 35.6682 293.407 34.0234L292.463 37.9103C299.411 39.5982 306.92 40.9272 315.13 41.5104L315.413 37.5205ZM271.887 27.4944C264.177 24.8512 256.953 22.2736 250.045 20.7395L249.178 24.6444C255.812 26.1178 262.777 28.6 270.59 31.2782L271.887 27.4944ZM226.661 20.9538C220.15 22.9569 213.679 26.8856 206.948 33.3993L209.729 36.2738C216.112 30.0976 222.053 26.5564 227.837 24.7769L226.661 20.9538ZM192.237 51.2268C190.196 54.1757 188.114 57.3703 185.985 60.8265L189.391 62.9245C191.487 59.5221 193.53 56.3875 195.526 53.5031L192.237 51.2268ZM185.985 60.8265C184.076 63.9246 182.112 66.9102 180.096 69.787L183.372 72.0822C185.433 69.1406 187.441 66.0892 189.391 62.9245L185.985 60.8265ZM166.763 86.5082C161.832 91.9441 156.695 96.8783 151.404 101.351L153.986 104.405C159.41 99.8205 164.675 94.7638 169.725 89.1956L166.763 86.5082ZM134.21 114.006C128.064 117.923 121.794 121.329 115.471 124.275L117.161 127.901C123.636 124.884 130.06 121.395 136.36 117.379L134.21 114.006ZM95.561 132.066C88.5943 134.307 81.6529 136.062 74.83 137.4L75.6002 141.326C82.5679 139.958 89.6616 138.165 96.7857 135.874L95.561 132.066ZM53.6114 140.34C46.1325 140.957 38.9492 141.115 32.2074 140.923L32.0936 144.922C38.9777 145.118 46.3088 144.956 53.9401 144.327L53.6114 140.34Z" fill="#E4CF12"/>
</svg>
